{
  "accessors": [
    {
      "bufferView": 2,
      "componentType": 5126,
      "count": 55806,
      "max": [
        0.04287314414978027,
        -0.1962427794933319,
        0.8130298852920532
      ],
      "min": [
        -0.14597222208976746,
        -0.3230994641780853,
        0.7005268335342407
      ],
      "type": "VEC3"
    },
    {
      "bufferView": 2,
      "byteOffset": 669672,
      "componentType": 5126,
      "count": 55806,
      "max": [
        0.9999530911445618,
        0.9999606013298035,
        0.9999953508377075
      ],
      "min": [
        -0.999935507774353,
        -0.9999135136604309,
        -0.9999383687973022
      ],
      "type": "VEC3"
    },
    {
      "bufferView": 1,
      "componentType": 5126,
      "count": 55806,
      "max": [
        0.9988636374473572,
        0.9912108182907104
      ],
      "min": [
        0.0009765625,
        0.0009862376609817147
      ],
      "type": "VEC2"
    },
    {
      "bufferView": 1,
      "byteOffset": 446448,
      "componentType": 5126,
      "count": 55806,
      "max": [
        0.9988636374473572,
        0.9912108182907104
      ],
      "min": [
        0.0009765625,
        0.0009862376609817147
      ],
      "type": "VEC2"
    },
    {
      "bufferView": 0,
      "componentType": 5125,
      "count": 237162,
      "type": "SCALAR"
    }
  ],
  "asset": {
    "extras": {
      "author": "DigitaltwinningNerd (https://sketchfab.com/DigitaltwinningNerd)",
      "license": "CC-BY-4.0 (http://creativecommons.org/licenses/by/4.0/)",
      "source": "https://sketchfab.com/3d-models/golden-caramel-pop-corn-3e054074792b4b9e8587ec196d207a96",
      "title": "Golden Caramel Pop Corn"
    },
    "generator": "Sketchfab-14.55.0",
    "version": "2.0"
  },
  "bufferViews": [
    {
      "buffer": 0,
      "byteLength": 948648,
      "name": "floatBufferViews",
      "target": 34963
    },
    {
      "buffer": 0,
      "byteLength": 892896,
      "byteOffset": 948648,
      "byteStride": 8,
      "name": "floatBufferViews",
      "target": 34962
    },
    {
      "buffer": 0,
      "byteLength": 1339344,
      "byteOffset": 1841544,
      "byteStride": 12,
      "name": "floatBufferViews",
      "target": 34962
    }
  ],
  "buffers": [
    {
      "byteLength": 3180888,
      "uri": "scene.bin"
    }
  ],
  "extensionsUsed": [
    "KHR_materials_unlit"
  ],
  "images": [
    {
      "uri": "textures/tex_u1_v1_baseColor.jpeg"
    }
  ],
  "materials": [
    {
      "doubleSided": true,
      "extensions": {
        "KHR_materials_unlit": {}
      },
      "name": "tex_u1_v1",
      "pbrMetallicRoughness": {
        "baseColorTexture": {
          "index": 0
        },
        "metallicFactor": 0.0
      }
    }
  ],
  "meshes": [
    {
      "name": "model_tex_u1_v1_0",
      "primitives": [
        {
          "attributes": {
            "NORMAL": 1,
            "POSITION": 0,
            "TEXCOORD_0": 2,
            "TEXCOORD_1": 3
          },
          "indices": 4,
          "material": 0,
          "mode": 4
        }
      ]
    }
  ],
  "nodes": [
    {
      "children": [
        1
      ],
      "matrix": [
        1.0,
        0.0,
        0.0,
        0.0,
        0.0,
        2.220446049250313e-16,
        -1.0,
        0.0,
        0.0,
        1.0,
        2.220446049250313e-16,
        0.0,
        0.0,
        0.0,
        0.0,
        1.0
      ],
      "name": "Sketchfab_model"
    },
    {
      "children": [
        2
      ],
      "matrix": [
        1.0,
        0.0,
        0.0,
        0.0,
        0.0,
        -1.0,
        0.0,
        0.0,
        0.0,
        0.0,
        -1.0,
        0.0,
        0.0,
        0.0,
        0.0,
        1.0
      ],
      "name": "model.fbx"
    },
    {
      "children": [
        3
      ],
      "name": "RootNode"
    },
    {
      "children": [
        4
      ],
      "name": "model"
    },
    {
      "mesh": 0,
      "name": "model_tex_u1_v1_0"
    }
  ],
  "samplers": [
    {
      "magFilter": 9729,
      "minFilter": 9987,
      "wrapS": 10497,
      "wrapT": 10497
    }
  ],
  "scene": 0,
  "scenes": [
    {
      "name": "Sketchfab_Scene",
      "nodes": [
        0
      ]
    }
  ],
  "textures": [
    {
      "sampler": 0,
      "source": 0
    }
  ]
}
