{
  "accessors": [
    {
      "bufferView": 2,
      "componentType": 5126,
      "count": 65532,
      "max": [
        1.557960033416748,
        0.8485900163650513,
        1.6941499710083008
      ],
      "min": [
        -0.9013500213623047,
        -0.6680200099945068,
        -1.7397500276565552
      ],
      "type": "VEC3"
    },
    {
      "bufferView": 2,
      "byteOffset": 786384,
      "componentType": 5126,
      "count": 65532,
      "max": [
        0.9999623894691467,
        0.9999160766601563,
        0.9929118752479553
      ],
      "min": [
        -0.9999997019767761,
        -0.9997840523719788,
        -0.9999412894248962
      ],
      "type": "VEC3"
    },
    {
      "bufferView": 2,
      "byteOffset": 1572768,
      "componentType": 5126,
      "count": 65532,
      "max": [
        1.0,
        1.0,
        1.0
      ],
      "min": [
        0.8078399896621704,
        0.6078400015830994,
        0.3803899884223938
      ],
      "type": "VEC3"
    },
    {
      "bufferView": 1,
      "componentType": 5126,
      "count": 65532,
      "max": [
        12.362460136413574,
        1.3019100427627563
      ],
      "min": [
        -0.3040100038051605,
        -14.079569816589355
      ],
      "type": "VEC2"
    },
    {
      "bufferView": 0,
      "componentType": 5125,
      "count": 187557,
      "type": "SCALAR"
    },
    {
      "bufferView": 2,
      "byteOffset": 2359152,
      "componentType": 5126,
      "count": 65532,
      "max": [
        0.05741000175476074,
        1.071810007095337,
        1.5679899454116821
      ],
      "min": [
        -0.7619400024414063,
        -0.07282999902963638,
        -1.7350900173187256
      ],
      "type": "VEC3"
    },
    {
      "bufferView": 2,
      "byteOffset": 3145536,
      "componentType": 5126,
      "count": 65532,
      "max": [
        0.9889959096908569,
        0.9999339580535889,
        0.9998509287834167
      ],
      "min": [
        -0.926645040512085,
        -0.5022192001342773,
        -0.9933140277862549
      ],
      "type": "VEC3"
    },
    {
      "bufferView": 2,
      "byteOffset": 3931920,
      "componentType": 5126,
      "count": 65532,
      "max": [
        1.0,
        1.0,
        1.0
      ],
      "min": [
        0.8078399896621704,
        0.6627500057220459,
        0.41569000482559204
      ],
      "type": "VEC3"
    },
    {
      "bufferView": 1,
      "byteOffset": 524256,
      "componentType": 5126,
      "count": 65532,
      "max": [
        1.0111900568008423,
        1.0667599439620972
      ],
      "min": [
        -0.010859999805688858,
        -0.09882999956607819
      ],
      "type": "VEC2"
    },
    {
      "bufferView": 0,
      "byteOffset": 750228,
      "componentType": 5125,
      "count": 180567,
      "type": "SCALAR"
    },
    {
      "bufferView": 2,
      "byteOffset": 4718304,
      "componentType": 5126,
      "count": 65532,
      "max": [
        1.4970999956130981,
        1.0643999576568604,
        1.6160900592803955
      ],
      "min": [
        -0.1335500031709671,
        -0.42447999119758606,
        -1.7195700407028198
      ],
      "type": "VEC3"
    },
    {
      "bufferView": 2,
      "byteOffset": 5504688,
      "componentType": 5126,
      "count": 65532,
      "max": [
        0.9999875426292419,
        0.999999463558197,
        0.9998590350151062
      ],
      "min": [
        -0.9999037384986877,
        -0.9998389482498169,
        -0.9717263579368591
      ],
      "type": "VEC3"
    },
    {
      "bufferView": 2,
      "byteOffset": 6291072,
      "componentType": 5126,
      "count": 65532,
      "max": [
        1.0,
        1.0,
        1.0
      ],
      "min": [
        0.8078399896621704,
        0.6078400015830994,
        0.3803899884223938
      ],
      "type": "VEC3"
    },
    {
      "bufferView": 1,
      "byteOffset": 1048512,
      "componentType": 5126,
      "count": 65532,
      "max": [
        2.3397998809814453,
        2.466010093688965
      ],
      "min": [
        -1.7689000368118286,
        -1.5988500118255615
      ],
      "type": "VEC2"
    },
    {
      "bufferView": 0,
      "byteOffset": 1472496,
      "componentType": 5125,
      "count": 184077,
      "type": "SCALAR"
    },
    {
      "bufferView": 2,
      "byteOffset": 7077456,
      "componentType": 5126,
      "count": 65533,
      "max": [
        1.1216200590133667,
        0.16494999825954437,
        1.6540199518203735
      ],
      "min": [
        -0.41144001483917236,
        -0.46445000171661377,
        -1.787600040435791
      ],
      "type": "VEC3"
    },
    {
      "bufferView": 2,
      "byteOffset": 7863852,
      "componentType": 5126,
      "count": 65533,
      "max": [
        0.9999875426292419,
        0.996911883354187,
        0.997911274433136
      ],
      "min": [
        -0.9966898560523987,
        -0.9976135492324829,
        -0.9999639391899109
      ],
      "type": "VEC3"
    },
    {
      "bufferView": 2,
      "byteOffset": 8650248,
      "componentType": 5126,
      "count": 65533,
      "max": [
        1.0,
        1.0,
        1.0
      ],
      "min": [
        0.8078399896621704,
        0.6627500057220459,
        0.41569000482559204
      ],
      "type": "VEC3"
    },
    {
      "bufferView": 1,
      "byteOffset": 1572768,
      "componentType": 5126,
      "count": 65533,
      "max": [
        3.5951199531555176,
        3.359790086746216
      ],
      "min": [
        -2.266669988632202,
        -2.8785200119018555
      ],
      "type": "VEC2"
    },
    {
      "bufferView": 0,
      "byteOffset": 2208804,
      "componentType": 5125,
      "count": 106920,
      "type": "SCALAR"
    },
    {
      "bufferView": 2,
      "byteOffset": 9436644,
      "componentType": 5126,
      "count": 65532,
      "max": [
        1.2592300176620483,
        1.013659954071045,
        1.7480000257492065
      ],
      "min": [
        -0.2974900007247925,
        -0.480430006980896,
        -1.783769965171814
      ],
      "type": "VEC3"
    },
    {
      "bufferView": 2,
      "byteOffset": 10223028,
      "componentType": 5126,
      "count": 65532,
      "max": [
        0.9998858571052551,
        0.9988875389099121,
        0.9994454979896545
      ],
      "min": [
        -0.8238608837127686,
        -0.999888002872467,
        -0.999925971031189
      ],
      "type": "VEC3"
    },
    {
      "bufferView": 2,
      "byteOffset": 11009412,
      "componentType": 5126,
      "count": 65532,
      "max": [
        1.0,
        1.0,
        1.0
      ],
      "min": [
        0.8078399896621704,
        0.6627500057220459,
        0.41569000482559204
      ],
      "type": "VEC3"
    },
    {
      "bufferView": 1,
      "byteOffset": 2097032,
      "componentType": 5126,
      "count": 65532,
      "max": [
        1.4870400428771973,
        1.3603299856185913
      ],
      "min": [
        -0.041349999606609344,
        -0.353410005569458
      ],
      "type": "VEC2"
    },
    {
      "bufferView": 0,
      "byteOffset": 2636484,
      "componentType": 5125,
      "count": 178713,
      "type": "SCALAR"
    },
    {
      "bufferView": 2,
      "byteOffset": 11795796,
      "componentType": 5126,
      "count": 65532,
      "max": [
        0.7918000221252441,
        1.0301599502563477,
        1.7443000078201294
      ],
      "min": [
        -1.1661900281906128,
        -0.2944599986076355,
        -1.741979956626892
      ],
      "type": "VEC3"
    },
    {
      "bufferView": 2,
      "byteOffset": 12582180,
      "componentType": 5126,
      "count": 65532,
      "max": [
        0.8657788038253784,
        0.9985435605049133,
        0.9999622702598572
      ],
      "min": [
        -0.9998589158058167,
        -0.9999791979789734,
        -0.9999744296073914
      ],
      "type": "VEC3"
    },
    {
      "bufferView": 2,
      "byteOffset": 13368564,
      "componentType": 5126,
      "count": 65532,
      "max": [
        1.0,
        1.0,
        1.0
      ],
      "min": [
        0.8078399896621704,
        0.6627500057220459,
        0.41569000482559204
      ],
      "type": "VEC3"
    },
    {
      "bufferView": 1,
      "byteOffset": 2621288,
      "componentType": 5126,
      "count": 65532,
      "max": [
        1.013010025024414,
        1.1939899921417236
      ],
      "min": [
        -0.016330000013113022,
        -0.07690999656915665
      ],
      "type": "VEC2"
    },
    {
      "bufferView": 0,
      "byteOffset": 3351336,
      "componentType": 5125,
      "count": 185202,
      "type": "SCALAR"
    },
    {
      "bufferView": 2,
      "byteOffset": 14154948,
      "componentType": 5126,
      "count": 65532,
      "max": [
        0.0681999996304512,
        0.019819999113678932,
        1.7669999599456787
      ],
      "min": [
        -1.1732100248336792,
        -0.9612500071525574,
        -1.7382500171661377
      ],
      "type": "VEC3"
    },
    {
      "bufferView": 2,
      "byteOffset": 14941332,
      "componentType": 5126,
      "count": 65532,
      "max": [
        0.996486485004425,
        0.9314234256744385,
        0.9999712109565735
      ],
      "min": [
        -0.9999564290046692,
        -0.9946709275245667,
        -0.9996675252914429
      ],
      "type": "VEC3"
    },
    {
      "bufferView": 2,
      "byteOffset": 15727716,
      "componentType": 5126,
      "count": 65532,
      "max": [
        1.0,
        1.0,
        1.0
      ],
      "min": [
        0.98430997133255,
        0.8196099996566772,
        0.513729989528656
      ],
      "type": "VEC3"
    },
    {
      "bufferView": 1,
      "byteOffset": 3145544,
      "componentType": 5126,
      "count": 65532,
      "max": [
        1.0095100402832031,
        1.091189980506897
      ],
      "min": [
        -0.0052999998442828655,
        -0.1542699933052063
      ],
      "type": "VEC2"
    },
    {
      "bufferView": 0,
      "byteOffset": 4092144,
      "componentType": 5125,
      "count": 194658,
      "type": "SCALAR"
    },
    {
      "bufferView": 2,
      "byteOffset": 16514100,
      "componentType": 5126,
      "count": 65533,
      "max": [
        0.31007999181747437,
        -0.10826999694108963,
        1.7519099712371826
      ],
      "min": [
        -0.7721400260925293,
        -1.1435099840164185,
        -1.7570199966430664
      ],
      "type": "VEC3"
    },
    {
      "bufferView": 2,
      "byteOffset": 17300496,
      "componentType": 5126,
      "count": 65533,
      "max": [
        0.9999988675117493,
        0.9992017149925232,
        0.9999208450317383
      ],
      "min": [
        -0.9992145299911499,
        -1.0,
        -0.9997983574867249
      ],
      "type": "VEC3"
    },
    {
      "bufferView": 2,
      "byteOffset": 18086892,
      "componentType": 5126,
      "count": 65533,
      "max": [
        1.0,
        1.0,
        1.0
      ],
      "min": [
        0.8078399896621704,
        0.6627500057220459,
        0.41569000482559204
      ],
      "type": "VEC3"
    },
    {
      "bufferView": 1,
      "byteOffset": 3669800,
      "componentType": 5126,
      "count": 65533,
      "max": [
        1.0675499439239502,
        1.742799997329712
      ],
      "min": [
        -0.13147999346256256,
        -0.18156999349594116
      ],
      "type": "VEC2"
    },
    {
      "bufferView": 0,
      "byteOffset": 4870776,
      "componentType": 5125,
      "count": 204333,
      "type": "SCALAR"
    },
    {
      "bufferView": 2,
      "byteOffset": 18873288,
      "componentType": 5126,
      "count": 65532,
      "max": [
        1.4040199518203735,
        0.03853999823331833,
        1.5192400217056274
      ],
      "min": [
        -0.03903000056743622,
        -1.2380399703979492,
        -1.7336699962615967
      ],
      "type": "VEC3"
    },
    {
      "bufferView": 2,
      "byteOffset": 19659672,
      "componentType": 5126,
      "count": 65532,
      "max": [
        0.9991485476493835,
        0.999339759349823,
        0.9995936155319214
      ],
      "min": [
        -0.9975983500480652,
        -0.9998908638954163,
        -0.9531649947166443
      ],
      "type": "VEC3"
    },
    {
      "bufferView": 2,
      "byteOffset": 20446056,
      "componentType": 5126,
      "count": 65532,
      "max": [
        1.0,
        1.0,
        1.0
      ],
      "min": [
        0.8078399896621704,
        0.6627500057220459,
        0.41569000482559204
      ],
      "type": "VEC3"
    },
    {
      "bufferView": 1,
      "byteOffset": 4194064,
      "componentType": 5126,
      "count": 65532,
      "max": [
        1.0230400562286377,
        1.3417099714279175
      ],
      "min": [
        -0.03317999839782715,
        -0.48232999444007874
      ],
      "type": "VEC2"
    },
    {
      "bufferView": 0,
      "byteOffset": 5688108,
      "componentType": 5125,
      "count": 200613,
      "type": "SCALAR"
    },
    {
      "bufferView": 2,
      "byteOffset": 21232440,
      "componentType": 5126,
      "count": 12113,
      "max": [
        1.5581899881362915,
        -0.3292900025844574,
        1.5890899896621704
      ],
      "min": [
        0.1921599954366684,
        -0.9000599980354309,
        -1.675860047340393
      ],
      "type": "VEC3"
    },
    {
      "bufferView": 2,
      "byteOffset": 21377796,
      "componentType": 5126,
      "count": 12113,
      "max": [
        0.9998528361320496,
        0.29164209961891174,
        0.9814534783363342
      ],
      "min": [
        -0.932549238204956,
        -0.9030032753944397,
        -0.9661491513252258
      ],
      "type": "VEC3"
    },
    {
      "bufferView": 2,
      "byteOffset": 21523152,
      "componentType": 5126,
      "count": 12113,
      "max": [
        1.0,
        1.0,
        1.0
      ],
      "min": [
        0.8078399896621704,
        0.6627500057220459,
        0.41569000482559204
      ],
      "type": "VEC3"
    },
    {
      "bufferView": 1,
      "byteOffset": 4718320,
      "componentType": 5126,
      "count": 12113,
      "max": [
        1.0301599502563477,
        1.1878299713134766
      ],
      "min": [
        -0.032760001718997955,
        -0.10306999832391739
      ],
      "type": "VEC2"
    },
    {
      "bufferView": 0,
      "byteOffset": 6490560,
      "componentType": 5125,
      "count": 36240,
      "type": "SCALAR"
    }
  ],
  "asset": {
    "extras": {
      "author": "majdsalman (https://sketchfab.com/majdsalman)",
      "license": "CC-BY-4.0 (http://creativecommons.org/licenses/by/4.0/)",
      "source": "https://sketchfab.com/3d-models/popcorn-c2612dddc7034e1b9b590c8cd85a92b5",
      "title": "Popcorn"
    },
    "generator": "Sketchfab-12.67.0",
    "version": "2.0"
  },
  "bufferViews": [
    {
      "buffer": 0,
      "byteLength": 6635520,
      "name": "floatBufferViews",
      "target": 34963
    },
    {
      "buffer": 0,
      "byteLength": 4815224,
      "byteOffset": 6635520,
      "byteStride": 8,
      "name": "floatBufferViews",
      "target": 34962
    },
    {
      "buffer": 0,
      "byteLength": 21668508,
      "byteOffset": 11450744,
      "byteStride": 12,
      "name": "floatBufferViews",
      "target": 34962
    }
  ],
  "buffers": [
    {
      "byteLength": 33119252,
      "uri": "scene.bin"
    }
  ],
  "materials": [
    {
      "doubleSided": true,
      "name": "Material.001",
      "pbrMetallicRoughness": {
        "baseColorFactor": [
          0.8000000119,
          0.8000000119,
          0.8000000119,
          1.0
        ],
        "metallicFactor": 0.0,
        "roughnessFactor": 0.6
      }
    }
  ],
  "meshes": [
    {
      "name": "Sphere",
      "primitives": [
        {
          "attributes": {
            "COLOR_0": 2,
            "NORMAL": 1,
            "POSITION": 0,
            "TEXCOORD_0": 3
          },
          "indices": 4,
          "material": 0,
          "mode": 4
        }
      ]
    },
    {
      "name": "Sphere",
      "primitives": [
        {
          "attributes": {
            "COLOR_0": 7,
            "NORMAL": 6,
            "POSITION": 5,
            "TEXCOORD_0": 8
          },
          "indices": 9,
          "material": 0,
          "mode": 4
        }
      ]
    },
    {
      "name": "Sphere",
      "primitives": [
        {
          "attributes": {
            "COLOR_0": 12,
            "NORMAL": 11,
            "POSITION": 10,
            "TEXCOORD_0": 13
          },
          "indices": 14,
          "material": 0,
          "mode": 4
        }
      ]
    },
    {
      "name": "Sphere",
      "primitives": [
        {
          "attributes": {
            "COLOR_0": 17,
            "NORMAL": 16,
            "POSITION": 15,
            "TEXCOORD_0": 18
          },
          "indices": 19,
          "material": 0,
          "mode": 4
        }
      ]
    },
    {
      "name": "Sphere",
      "primitives": [
        {
          "attributes": {
            "COLOR_0": 22,
            "NORMAL": 21,
            "POSITION": 20,
            "TEXCOORD_0": 23
          },
          "indices": 24,
          "material": 0,
          "mode": 4
        }
      ]
    },
    {
      "name": "Sphere",
      "primitives": [
        {
          "attributes": {
            "COLOR_0": 27,
            "NORMAL": 26,
            "POSITION": 25,
            "TEXCOORD_0": 28
          },
          "indices": 29,
          "material": 0,
          "mode": 4
        }
      ]
    },
    {
      "name": "Sphere",
      "primitives": [
        {
          "attributes": {
            "COLOR_0": 32,
            "NORMAL": 31,
            "POSITION": 30,
            "TEXCOORD_0": 33
          },
          "indices": 34,
          "material": 0,
          "mode": 4
        }
      ]
    },
    {
      "name": "Sphere",
      "primitives": [
        {
          "attributes": {
            "COLOR_0": 37,
            "NORMAL": 36,
            "POSITION": 35,
            "TEXCOORD_0": 38
          },
          "indices": 39,
          "material": 0,
          "mode": 4
        }
      ]
    },
    {
      "name": "Sphere",
      "primitives": [
        {
          "attributes": {
            "COLOR_0": 42,
            "NORMAL": 41,
            "POSITION": 40,
            "TEXCOORD_0": 43
          },
          "indices": 44,
          "material": 0,
          "mode": 4
        }
      ]
    },
    {
      "name": "Sphere",
      "primitives": [
        {
          "attributes": {
            "COLOR_0": 47,
            "NORMAL": 46,
            "POSITION": 45,
            "TEXCOORD_0": 48
          },
          "indices": 49,
          "material": 0,
          "mode": 4
        }
      ]
    }
  ],
  "nodes": [
    {
      "children": [
        1
      ],
      "matrix": [
        1.0,
        0.0,
        0.0,
        0.0,
        0.0,
        2.220446049250313e-16,
        -1.0,
        0.0,
        0.0,
        1.0,
        2.220446049250313e-16,
        0.0,
        0.0,
        0.0,
        0.0,
        1.0
      ],
      "name": "Sketchfab_model"
    },
    {
      "children": [
        2,
        4,
        15,
        17
      ],
      "name": "Root"
    },
    {
      "children": [
        3
      ],
      "matrix": [
        -0.29086000000000006,
        0.9551700000000001,
        -0.05519000000000001,
        0.0,
        -0.7711,
        -0.19988000000000003,
        0.6045200000000001,
        0.0,
        0.5663900000000001,
        0.21839000000000003,
        0.7946700000000001,
        0.0,
        4.34847,
        0.92222,
        5.476850000000001,
        1.0
      ],
      "name": "Lamp"
    },
    {
      "name": "Lamp"
    },
    {
      "children": [
        5,
        6,
        7,
        8,
        9,
        10,
        11,
        12,
        13,
        14
      ],
      "matrix": [
        0.30744000000000005,
        0.16723000000000005,
        0.0,
        0.0,
        -0.16723000000000005,
        0.30744000000000005,
        -0.0,
        0.0,
        -0.0,
        -0.0,
        0.3499800000000001,
        0.0,
        -0.014300000000000002,
        -0.06765000000000002,
        0.3314600000000001,
        1.0
      ],
      "name": "Sphere"
    },
    {
      "mesh": 0,
      "name": "Sphere"
    },
    {
      "mesh": 1,
      "name": "Sphere"
    },
    {
      "mesh": 2,
      "name": "Sphere"
    },
    {
      "mesh": 3,
      "name": "Sphere"
    },
    {
      "mesh": 4,
      "name": "Sphere"
    },
    {
      "mesh": 5,
      "name": "Sphere"
    },
    {
      "mesh": 6,
      "name": "Sphere"
    },
    {
      "mesh": 7,
      "name": "Sphere"
    },
    {
      "mesh": 8,
      "name": "Sphere"
    },
    {
      "mesh": 9,
      "name": "Sphere"
    },
    {
      "children": [
        16
      ],
      "matrix": [
        -0.29086000000000006,
        0.9551700000000001,
        -0.05519000000000001,
        0.0,
        -0.7711,
        -0.19988000000000003,
        0.6045200000000001,
        0.0,
        0.5663900000000001,
        0.21839000000000003,
        0.7946700000000001,
        0.0,
        2.28222,
        4.89938,
        4.565919999999999,
        1.0
      ],
      "name": "Lamp.001"
    },
    {
      "name": "Lamp.001"
    },
    {
      "children": [
        18
      ],
      "matrix": [
        -0.29086000000000006,
        0.9551700000000001,
        -0.05519000000000001,
        0.0,
        -0.7711,
        -0.19988000000000003,
        0.6045200000000001,
        0.0,
        0.5663900000000001,
        0.21839000000000003,
        0.7946700000000001,
        0.0,
        4.75993,
        2.96159,
        2.1441700000000004,
        1.0
      ],
      "name": "Lamp.002"
    },
    {
      "name": "Lamp.002"
    }
  ],
  "scene": 0,
  "scenes": [
    {
      "name": "Sketchfab_Scene",
      "nodes": [
        0
      ]
    }
  ]
}
